HIERARCHY
ROOT Hips
{
    OFFSET 0.000000 0.000000 0.000000
    CHANNELS 6 Xposition Yposition Zposition Zrotation Xrotation Yrotation
    JOINT Spine
    {
        OFFSET -0.000000 7.305679 0.000000
        CHANNELS 3 Zrotation Xrotation Yrotation
        JOINT Spine1
        {
            OFFSET -0.000000 20.356625 0.000000
            CHANNELS 3 Zrotation Xrotation Yrotation
            JOINT Neck
            {
                OFFSET -0.000000 22.138498 0.000000
                CHANNELS 3 Zrotation Xrotation Yrotation
                JOINT Head
                {
                    OFFSET -0.000000 13.809516 1.781873
                    CHANNELS 3 Zrotation Xrotation Yrotation
                    End Site
                    {
                        OFFSET -0.000000 17.818729 0.000000
                    }
                }
            }
            JOINT LeftShoulder
            {
                OFFSET 3.599131 17.989975 0.023592
                CHANNELS 3 Zrotation Xrotation Yrotation
                JOINT LeftArm
                {
                    OFFSET 12.560995 0.000000 0.000000
                    CHANNELS 3 Zrotation Xrotation Yrotation
                    JOINT LeftForeArm
                    {
                        OFFSET 22.903347 0.000000 0.000000
                        CHANNELS 3 Zrotation Xrotation Yrotation
                        JOINT LeftHand
                        {
                            OFFSET 21.865294 0.000000 0.000000
                            CHANNELS 3 Zrotation Xrotation Yrotation
                            JOINT LeftHandThumb1
                            {
                                OFFSET 1.853706 -2.106484 2.949078
                                CHANNELS 3 Zrotation Xrotation Yrotation
                                JOINT LeftHandThumb2
                                {
                                    OFFSET 2.049154 0.000000 1.336405
                                    CHANNELS 3 Zrotation Xrotation Yrotation
                                    JOINT LeftHandThumb3
                                    {
                                        OFFSET 2.672809 0.000000 0.000000
                                        CHANNELS 3 Zrotation Xrotation Yrotation
                                        End Site
                                        {
                                            OFFSET 2.381303 0.000000 0.000000
                                        }
                                    }
                                }
                            }
                            JOINT LeftHandIndex1
                            {
                                OFFSET 7.583345 0.000000 2.949078
                                CHANNELS 3 Zrotation Xrotation Yrotation
                                JOINT LeftHandIndex2
                                {
                                    OFFSET 4.454682 0.000000 0.000000
                                    CHANNELS 3 Zrotation Xrotation Yrotation
                                    JOINT LeftHandIndex3
                                    {
                                        OFFSET 2.227341 0.000000 0.000000
                                        CHANNELS 3 Zrotation Xrotation Yrotation
                                        End Site
                                        {
                                            OFFSET 1.984419 0.000000 0.000000
                                        }
                                    }
                                }
                            }
                            JOINT LeftHandMiddle1
                            {
                                OFFSET 7.583345 0.000000 0.977409
                                CHANNELS 3 Zrotation Xrotation Yrotation
                                JOINT LeftHandMiddle2
                                {
                                    OFFSET 4.900151 0.000000 0.000000
                                    CHANNELS 3 Zrotation Xrotation Yrotation
                                    JOINT LeftHandMiddle3
                                    {
                                        OFFSET 2.672809 0.000000 0.000000
                                        CHANNELS 3 Zrotation Xrotation Yrotation
                                        End Site
                                        {
                                            OFFSET 2.381303 0.000000 0.000000
                                        }
                                    }
                                }
                            }
                            JOINT LeftHandRing1
                            {
                                OFFSET 7.162047 0.000000 -0.977409
                                CHANNELS 3 Zrotation Xrotation Yrotation
                                JOINT LeftHandRing2
                                {
                                    OFFSET 4.454682 0.000000 0.000000
                                    CHANNELS 3 Zrotation Xrotation Yrotation
                                    JOINT LeftHandRing3
                                    {
                                        OFFSET 2.227341 0.000000 0.000000
                                        CHANNELS 3 Zrotation Xrotation Yrotation
                                        End Site
                                        {
                                            OFFSET 1.984419 0.000000 0.000000
                                        }
                                    }
                                }
                            }
                            JOINT LeftHandPinky1
                            {
                                OFFSET 6.740750 0.000000 -2.949078
                                CHANNELS 3 Zrotation Xrotation Yrotation
                                JOINT LeftHandPinky2
                                {
                                    OFFSET 3.563746 0.000000 0.000000
                                    CHANNELS 3 Zrotation Xrotation Yrotation
                                    JOINT LeftHandPinky3
                                    {
                                        OFFSET 1.781873 0.000000 0.000000
                                        CHANNELS 3 Zrotation Xrotation Yrotation
                                        End Site
                                        {
                                            OFFSET 1.587536 0.000000 0.000000
                                        }
                                    }
                                }
                            }
                        }
                    }
                }
            }
            JOINT RightShoulder
            {
                OFFSET -3.506995 17.989975 0.023592
                CHANNELS 3 Zrotation Xrotation Yrotation
                JOINT RightArm
                {
                    OFFSET -12.560995 0.000000 0.000000
                    CHANNELS 3 Zrotation Xrotation Yrotation
                    JOINT RightForeArm
                    {
                        OFFSET -22.903347 0.000000 0.000000
                        CHANNELS 3 Zrotation Xrotation Yrotation
                        JOINT RightHand
                        {
                            OFFSET -21.865294 0.000000 0.000000
                            CHANNELS 3 Zrotation Xrotation Yrotation
                            JOINT RightHandThumb1
                            {
                                OFFSET -1.853706 -2.106484 2.949078
                                CHANNELS 3 Zrotation Xrotation Yrotation
                                JOINT RightHandThumb2
                                {
                                    OFFSET -2.049154 0.000000 1.336405
                                    CHANNELS 3 Zrotation Xrotation Yrotation
                                    JOINT RightHandThumb3
                                    {
                                        OFFSET -2.672809 0.000000 0.000000
                                        CHANNELS 3 Zrotation Xrotation Yrotation
                                        End Site
                                        {
                                            OFFSET -2.381303 0.000000 0.000000
                                        }
                                    }
                                }
                            }
                            JOINT RightHandIndex1
                            {
                                OFFSET -7.583345 0.000000 2.949078
                                CHANNELS 3 Zrotation Xrotation Yrotation
                                JOINT RightHandIndex2
                                {
                                    OFFSET -4.454682 0.000000 0.000000
                                    CHANNELS 3 Zrotation Xrotation Yrotation
                                    JOINT RightHandIndex3
                                    {
                                        OFFSET -2.227341 0.000000 0.000000
                                        CHANNELS 3 Zrotation Xrotation Yrotation
                                        End Site
                                        {
                                            OFFSET -1.984419 0.000000 0.000000
                                        }
                                    }
                                }
                            }
                            JOINT RightHandMiddle1
                            {
                                OFFSET -7.583345 0.000000 0.977409
                                CHANNELS 3 Zrotation Xrotation Yrotation
                                JOINT RightHandMiddle2
                                {
                                    OFFSET -4.900151 0.000000 0.000000
                                    CHANNELS 3 Zrotation Xrotation Yrotation
                                    JOINT RightHandMiddle3
                                    {
                                        OFFSET -2.672809 0.000000 0.000000
                                        CHANNELS 3 Zrotation Xrotation Yrotation
                                        End Site
                                        {
                                            OFFSET -2.381303 0.000000 0.000000
                                        }
                                    }
                                }
                            }
                            JOINT RightHandRing1
                            {
                                OFFSET -7.162047 0.000000 -0.977409
                                CHANNELS 3 Zrotation Xrotation Yrotation
                                JOINT RightHandRing2
                                {
                                    OFFSET -4.454682 0.000000 0.000000
                                    CHANNELS 3 Zrotation Xrotation Yrotation
                                    JOINT RightHandRing3
                                    {
                                        OFFSET -2.227341 0.000000 0.000000
                                        CHANNELS 3 Zrotation Xrotation Yrotation
                                        End Site
                                        {
                                            OFFSET -1.984419 0.000000 0.000000
                                        }
                                    }
                                }
                            }
                            JOINT RightHandPinky1
                            {
                                OFFSET -6.740750 0.000000 -2.949078
                                CHANNELS 3 Zrotation Xrotation Yrotation
                                JOINT RightHandPinky2
                                {
                                    OFFSET -3.563746 0.000000 0.000000
                                    CHANNELS 3 Zrotation Xrotation Yrotation
                                    JOINT RightHandPinky3
                                    {
                                        OFFSET -1.781873 0.000000 0.000000
                                        CHANNELS 3 Zrotation Xrotation Yrotation
                                        End Site
                                        {
                                            OFFSET -1.587536 0.000000 0.000000
                                        }
                                    }
                                }
                            }
                        }
                    }
                }
            }
        }
    }
    JOINT LeftUpLeg
    {
        OFFSET 8.909365 0.000000 0.000000
        CHANNELS 3 Zrotation Xrotation Yrotation
        JOINT LeftLeg
        {
            OFFSET -0.000000 -38.765560 0.000000
            CHANNELS 3 Zrotation Xrotation Yrotation
            JOINT LeftFoot
            {
                OFFSET -0.000000 -35.244961 0.000000
                CHANNELS 3 Zrotation Xrotation Yrotation
                JOINT LeftToeBase
                {
                    OFFSET -0.000000 -5.791087 13.364048
                    CHANNELS 3 Zrotation Xrotation Yrotation
                    End Site
                    {
                        OFFSET -0.000000 0.000000 3.563746
                    }
                }
            }
        }
    }
    JOINT RightUpLeg
    {
        OFFSET -8.909365 0.000000 0.000000
        CHANNELS 3 Zrotation Xrotation Yrotation
        JOINT RightLeg
        {
            OFFSET -0.000000 -38.765560 0.000000
            CHANNELS 3 Zrotation Xrotation Yrotation
            JOINT RightFoot
            {
                OFFSET -0.000000 -35.244961 0.000000
                CHANNELS 3 Zrotation Xrotation Yrotation
                JOINT RightToeBase
                {
                    OFFSET -0.000000 -5.791087 13.364048
                    CHANNELS 3 Zrotation Xrotation Yrotation
                    End Site
                    {
                        OFFSET -0.000000 0.000000 3.563746
                    }
                }
            }
        }
    }
}
MOTION
Frames:    4
Frame Time:    0.008333
-0.593656    81.268852    108.704796    0.972281    -0.181945    -1.644662    -0.311062    -0.514634    3.388935    -4.513258    0.798336    1.161891    6.480291    -1.022459    -6.003223    8.566511    -2.135724    -6.342130    35.732929    -14.069257    7.516923    29.329632    -26.360779    -13.828911    55.663250    -28.633533    -17.583981    12.335158    -22.501968    25.830660    -2.967344    9.731906    9.387628    -0.000000    0.000000    12.259956    -0.000000    0.000000    24.519915    6.070222    -0.026295    -0.247266    0.000000    0.000000    0.000000    0.000000    0.000000    0.000000    -20.347820    -7.002906    6.060375    -36.299995    0.000000    0.000000    -25.240435    0.000000    0.000000    -46.632236    -16.046074    8.661643    -72.600006    0.000000    0.000000    -50.480862    0.000000    0.000000    -74.991974    -25.524748    6.589839    -110.000000    0.000000    0.000000    -76.486160    0.000000    0.000000    -31.211010    -2.095297    -8.324373    -16.673182    -0.124544    20.543026    -67.612244    -34.084522    66.242859    12.045043    -36.239880    23.870474    1.533569    3.603801    -4.942004    0.000000    0.000000    -6.351429    0.000000    0.000000    -12.702857    12.682973    0.458105    2.034717    25.382215    0.000000    -0.000000    12.691108    0.000000    -0.000000    28.312727    -0.775242    0.020693    53.306087    0.000000    -0.000000    28.320152    0.000000    -0.000000    43.902012    -2.505035    -1.587843    81.229942    0.000000    -0.000000    43.949196    0.000000    -0.000000    59.941788    -4.670808    -2.698034    110.000000    0.000000    -0.000000    60.051842    0.000000    -0.000000    -2.960459    -9.351903    -1.704818    -1.790508    22.223751    11.361825    -2.323210    -12.929237    -6.915268    0.266499    0.601207    -0.582307    0.574285    -10.290775    1.345161    2.070039    25.143560    -8.616702    2.103443    -15.945985    8.313677    -0.291050    -0.708471    0.388235    
-0.643272    81.290749    108.666527    0.865653    -0.129354    -1.506760    -0.335782    -0.575760    3.667629    -4.418644    1.021594    1.262883    6.644089    -1.786727    -6.345246    8.500560    -2.202156    -6.707444    36.216053    -13.571647    8.091892    29.868690    -25.782913    -14.045136    52.521240    -27.525600    -18.161495    10.555624    -22.768879    24.037569    -2.803448    9.831121    9.735841    -0.000000    0.000000    12.676374    -0.000000    0.000000    25.352749    5.970315    0.000000    -0.000000    0.000000    0.000000    0.000000    0.000000    0.000000    0.000000    -20.314743    -7.117528    6.342039    -36.299995    0.000000    0.000000    -25.177481    0.000000    0.000000    -46.466896    -16.296118    8.934171    -72.600006    0.000000    0.000000    -50.354965    0.000000    0.000000    -74.730209    -25.897812    6.799764    -110.000000    0.000000    0.000000    -76.295403    0.000000    0.000000    -31.068008    -2.137342    -8.126769    -16.050381    0.706900    20.053493    -67.964798    -35.826954    68.719185    12.201743    -35.979111    24.789455    1.733541    3.610162    -4.838936    0.000000    0.000000    -6.260722    0.000000    0.000000    -12.521443    13.055372    0.494245    2.130400    26.129122    0.000000    -0.000000    13.064561    0.000000    -0.000000    28.648039    -0.729879    0.108222    53.806519    0.000000    -0.000000    28.654345    0.000000    -0.000000    44.199871    -2.451930    -1.511738    81.483902    0.000000    -0.000000    44.244129    0.000000    -0.000000    60.200127    -4.612496    -2.636872    110.000000    0.000000    -0.000000    60.306343    0.000000    -0.000000    -2.853222    -9.428417    -1.811770    -1.742269    22.204273    11.367941    -2.380786    -12.870349    -6.973160    0.267503    0.602375    -0.584617    0.692347    -10.242798    1.270671    2.093101    24.913162    -8.706017    2.090152    -15.830623    8.332785    -0.293003    -0.692575    0.392894    
-0.689478    81.314316    108.627357    0.766973    -0.076786    -1.360745    -0.333358    -0.624877    3.993513    -4.375276    1.226709    1.379005    6.797616    -2.517545    -6.720784    8.448174    -2.345683    -7.104680    36.679203    -13.037286    8.657698    30.381422    -24.941210    -14.249264    49.918282    -26.313875    -18.673567    8.755402    -22.896992    22.034874    -2.596768    9.922989    10.123042    -0.000000    0.000000    13.136226    -0.000000    0.000000    26.272455    5.642745    0.000000    -0.000000    0.000000    0.000000    0.000000    0.000000    0.000000    0.000000    -20.453402    -7.131392    6.365507    -36.299995    0.000000    0.000000    -25.098854    0.000000    0.000000    -46.408337    -16.324083    9.004641    -72.600006    0.000000    0.000000    -50.197704    0.000000    0.000000    -74.454010    -25.967276    6.944829    -110.000000    0.000000    0.000000    -76.057129    0.000000    0.000000    -30.904539    -2.197141    -7.913866    -15.352168    1.573377    19.508852    -68.258392    -37.572514    71.093460    12.365334    -35.749344    25.732296    1.915211    3.617413    -4.747287    0.000000    0.000000    -6.183040    0.000000    0.000000    -12.366077    13.412956    0.527837    2.212277    26.846294    0.000000    -0.000000    13.423146    0.000000    -0.000000    28.964590    -0.689430    0.183466    54.287022    0.000000    -0.000000    28.970009    0.000000    -0.000000    44.475082    -2.405487    -1.445930    81.727722    0.000000    -0.000000    44.516869    0.000000    -0.000000    60.431923    -4.561928    -2.583688    110.000000    0.000000    -0.000000    60.534851    0.000000    -0.000000    -2.754078    -9.496973    -1.916429    -1.697057    22.163576    11.382190    -2.435415    -12.799175    -7.047793    0.267975    0.600012    -0.586081    0.800623    -10.192880    1.187569    2.110926    24.677584    -8.786243    2.076010    -15.712050    8.345192    -0.294907    -0.676897    0.397455    
-0.732376    81.338661    108.587196    0.676321    -0.027562    -1.207417    -0.305470    -0.659129    4.369750    -4.377085    1.415580    1.511678    6.929872    -3.213103    -7.130180    8.412354    -2.564743    -7.535331    37.110806    -12.473487    9.191087    30.853662    -23.834356    -14.455941    47.963478    -24.961468    -19.124165    6.923450    -22.833992    19.882633    -2.381144    10.007179    10.507572    -0.000000    0.000000    13.599433    -0.000000    0.000000    27.198866    5.079601    0.000000    -0.000000    0.000000    0.000000    0.000000    0.000000    0.000000    0.000000    -20.765594    -7.073924    6.307671    -36.299995    0.000000    0.000000    -25.015253    0.000000    0.000000    -46.464813    -16.178463    8.959786    -72.600006    0.000000    0.000000    -50.030510    0.000000    0.000000    -74.199097    -25.756247    7.010515    -110.000000    0.000000    0.000000    -75.803795    0.000000    0.000000    -30.705256    -2.247448    -7.691117    -14.592867    2.437155    18.890770    -68.537476    -39.313602    73.325455    12.576401    -35.590435    26.738459    2.068410    3.623835    -4.670153    0.000000    0.000000    -6.122088    0.000000    0.000000    -12.244178    13.742032    0.555564    2.270548    27.506083    0.000000    -0.000000    13.753041    0.000000    -0.000000    29.248882    -0.656999    0.239689    54.729080    0.000000    -0.000000    29.253645    0.000000    -0.000000    44.714397    -2.367795    -1.394256    81.952057    0.000000    -0.000000    44.754238    0.000000    -0.000000    60.624329    -4.519382    -2.539712    110.000000    0.000000    -0.000000    60.724552    0.000000    -0.000000    -2.662556    -9.556420    -2.018439    -1.656261    22.106234    11.402349    -2.486257    -12.718036    -7.136121    0.267779    0.593596    -0.586429    0.899598    -10.139676    1.088205    2.119033    24.441160    -8.846534    2.061614    -15.592339    8.349359    -0.296953    -0.661822    0.402178    
